<?xml version="1.0" standalone="no"?>
<!DOCTYPE svg PUBLIC "-//W3C//DTD SVG 20010904//EN"
 "http://www.w3.org/TR/2001/REC-SVG-20010904/DTD/svg10.dtd">
<svg version="1.0" xmlns="http://www.w3.org/2000/svg"
 width="700.000000pt" height="700.000000pt" viewBox="0 0 700.000000 700.000000"
 preserveAspectRatio="xMidYMid meet">
<metadata>
Created by potrace 1.11, written by Peter Selinger 2001-2013
</metadata>
<g transform="translate(0.000000,700.000000) scale(0.100000,-0.100000)"
fill="#000000" stroke="none">
<path d="M4805 6967 c-148 -71 -333 -114 -528 -123 -67 -3 -396 -7 -732 -8
-593 -2 -612 -3 -688 -24 -110 -32 -209 -80 -287 -142 -145 -114 -258 -296
-287 -465 -6 -39 -6 -39 -61 -42 -261 -16 -473 -196 -526 -447 -16 -77 -13
-150 14 -329 11 -78 23 -158 26 -177 18 -127 24 -167 28 -185 2 -11 6 -41 10
-66 4 -25 8 -57 10 -70 3 -13 7 -46 11 -74 8 -62 15 -111 21 -138 2 -13 -9
-34 -32 -60 -52 -57 -75 -116 -75 -190 0 -155 109 -266 276 -281 28 -2 53 -5
58 -5 4 -1 7 -13 7 -27 0 -43 39 -224 67 -309 52 -158 148 -337 252 -464 77
-95 205 -214 299 -278 l43 -29 2 -277 c2 -152 0 -282 -4 -288 -4 -8 -21 -3
-50 14 -85 50 -110 57 -152 42 -21 -7 -45 -21 -53 -32 -29 -37 -158 -306 -163
-340 -6 -36 -6 -36 -101 -63 -352 -102 -886 -262 -942 -284 -103 -38 -156 -73
-243 -161 -64 -63 -90 -98 -122 -165 -70 -144 -73 -174 -73 -716 0 -338 3
-489 12 -518 18 -64 73 -142 125 -180 98 -71 -102 -66 2552 -66 1780 0 2404 3
2439 12 67 16 145 69 186 125 66 90 65 85 65 633 0 450 -1 501 -18 565 -36
136 -89 228 -184 321 -112 110 -161 133 -507 235 -129 39 -265 79 -301 90 -36
11 -155 46 -265 78 l-199 59 -6 34 c-5 33 -135 305 -163 340 -20 27 -76 47
-105 38 -14 -4 -54 -21 -88 -38 -34 -18 -64 -28 -66 -24 -2 4 -3 132 -1 285 2
258 3 280 20 293 11 8 42 31 71 52 114 84 244 221 332 350 108 159 202 400
227 583 3 22 7 48 9 57 2 9 4 27 4 38 1 19 7 22 63 23 241 5 366 283 209 463
l-38 43 14 95 c7 52 15 111 18 130 2 19 6 44 9 55 4 19 16 107 22 152 1 13 5
42 9 65 41 259 56 375 59 441 9 190 -101 388 -271 490 -29 18 -53 35 -53 40 0
5 9 29 20 55 75 181 85 423 25 654 -29 113 -37 129 -76 152 -40 24 -77 20
-154 -17z"/>
</g>
</svg>
